<mxfile host="app.diagrams.net" modified="2023-05-29T09:17:10.296Z" agent="Mozilla/5.0 (Windows NT 10.0; Win64; x64) AppleWebKit/537.36 (KHTML, like Gecko) Chrome/112.0.0.0 Safari/537.36 OPR/98.0.0.0" version="21.3.5" etag="U5iGzveJc9eEkBIY-A0s" type="github">
  <diagram name="Page-1" id="6yJ0URgky01UYsakyth0">
    <mxGraphModel>
      <root>
        <mxCell id="0" />
        <mxCell id="1" parent="0" />
      </root>
    </mxGraphModel>
  </diagram>
</mxfile>
